<?xml version="1.0" encoding="UTF-8" standalone="no"?>
<svg
   xmlns:dc="http://purl.org/dc/elements/1.1/"
   xmlns:cc="http://creativecommons.org/ns#"
   xmlns:rdf="http://www.w3.org/1999/02/22-rdf-syntax-ns#"
   xmlns:svg="http://www.w3.org/2000/svg"
   xmlns="http://www.w3.org/2000/svg"
   xmlns:sodipodi="http://sodipodi.sourceforge.net/DTD/sodipodi-0.dtd"
   xmlns:inkscape="http://www.inkscape.org/namespaces/inkscape"
   id="Layer_1"
   data-name="Layer 1"
   viewBox="0 0 1024 1024"
   version="1.1"
   sodipodi:docname="icon-monokai.svg"
   inkscape:version="0.92.0 unknown">
  <metadata
     id="metadata27">
    <rdf:RDF>
      <cc:Work
         rdf:about="">
        <dc:format>image/svg+xml</dc:format>
        <dc:type
           rdf:resource="http://purl.org/dc/dcmitype/StillImage" />
        <dc:title>williamhord-icon</dc:title>
      </cc:Work>
    </rdf:RDF>
  </metadata>
  <sodipodi:namedview
     pagecolor="#ffffff"
     bordercolor="#666666"
     borderopacity="1"
     objecttolerance="10"
     gridtolerance="10"
     guidetolerance="10"
     inkscape:pageopacity="0"
     inkscape:pageshadow="2"
     inkscape:window-width="2560"
     inkscape:window-height="1317"
     id="namedview25"
     showgrid="false"
     inkscape:zoom="0.4609375"
     inkscape:cx="426.0259"
     inkscape:cy="320.70156"
     inkscape:window-x="0"
     inkscape:window-y="24"
     inkscape:window-maximized="1"
     inkscape:current-layer="Layer_1" />
  <defs
     id="defs4">
    <style
       id="style2">.cls-1{fill:#FFFFFF;}.cls-2{fill:#5B5B58;}.cls-3{fill:#71716E;}.cls-4{fill:#888884;}.cls-5{fill:#66D9EF;}.cls-6,.cls-7{fill:none;}.cls-6{stroke:#000;stroke-miterlimit:10;}</style>
  </defs>
  <title
     id="title6">williamhord-icon</title>
  <polyline
     class="cls-2"
     points="952.31 212.39 952.31 927.55 243.06 927.55"
     id="polyline10" />
  <polyline
     class="cls-3"
     points="913.59 169.13 913.59 884.57 199.86 884.57"
     id="polyline12" />
  <polyline
     class="cls-4"
     points="869.17 127.36 869.17 841.8 156.46 841.8"
     id="polyline14" />
  <path
     class="cls-5"
     d="M182.91,116.46c-2,2.57-4,5.18-6,7.76a38.41,38.41,0,0,0-5.18,19.39c-2.06,22.69-4,45.29-5.36,68-1.36,23.5-2.49,46.93-2.92,70.41-0.76,46.79,2.35,93.66,6.91,140.23,4.73,48.81,11.51,97.34,20,145.65,4.54,25.92,9.35,51.83,15.07,77.61q6.43,29.15,12.92,58.26c1.3,5.75,2.54,11.51,3.82,17.28,3.3,14.84,8.4,29.37,12.68,43.89a38.32,38.32,0,0,0,9.88,17c6.77,6.77,17.28,11.89,27.14,11.25a56,56,0,0,1,6.17,0,85.68,85.68,0,0,0,14.31-1.43c8.64-1.21,16.69-6.51,22.75-12.53,8.45-8.4,13.82-20,16.74-31.34,2.61-10.14,3.46-21,4-31.39,0.54-7.72.79-15.45,1.73-23.13q5.91-43.68,11.7-87.37l9.19-55a12.17,12.17,0,0,1,.26-1.55q7.67,19.77,15.41,39.5c6.77,17.16,14.43,34.16,19.42,51.83a59.83,59.83,0,0,0,7.34,17.11c5.18,7.72,7.27,9.43,14.81,14.88,3.46,2.45,7.57,3.59,11.47,5.18,8.07,3.11,19,1.36,27-.22a44.37,44.37,0,0,0,23.1-14,82,82,0,0,0,7.69-10.37,108.32,108.32,0,0,0,5.18-12.2,49.85,49.85,0,0,0,2.64-10.71c1.62-9.73,2.32-19.54,3.46-29.37,1.73-11.09,3.46-22.12,5-33.24,1.59-12,2.8-24,4.16-36,0.92-8.45,1.94-16.93,2.89-25.4L515.15,445c2.38-21.32,4.67-42.59,7.08-63.93v-4.32l0.35-2.42c0.12-.64.26-1.24,0.38-1.85a18,18,0,0,1,.54-1.81q0.39-1.37.83-2.7a81.67,81.67,0,0,1,4.15-11.25,9.35,9.35,0,0,1,.38-1.11q0.33-.79.69-1.59l0.14-.6c0.6-2.57,1.33-5.18,2-7.69a61.71,61.71,0,0,0,1.36-7.38h0c0.19-1.73.38-3.56,0.41-5.34V329.2c0-1.57-.1-3.13-0.22-4.67a18.7,18.7,0,0,0-.22-2c-0.22-1-.45-2-0.67-3a42.64,42.64,0,0,0-24.79-19.13c-12.49-3.46-23.62.48-34.83,5.37-4,1.73-7.12,4.89-10.49,7.65-5.91,4.89-8.78,13.25-11.4,20-1.73,4.35-1.43,9.31-2,14-0.26,2-.22,4.09-0.31,6.13,0,1.73-.31,3.46-0.48,5.18-0.6,4.89-1.17,9.81-1.73,14.69-2,16.36-3.71,32.71-5.49,49.07q-5.18,47.38-10.61,94.65c-0.16,1.21-.26,2.42-0.41,3.63-2.64-6.77-5.3-13.6-7.91-20.37-2.26-5.82-4.39-11.66-6.32-17.61-3.21-9.76-6.91-19.2-11-28.63a79.62,79.62,0,0,0-16.4-23.52c-6.74-6.91-14.24-10.49-23.24-13.6-3.82-1.33-8.1-1.47-12.09-2.45a38.79,38.79,0,0,0-29.56,3.87c-9.05,5.18-14.34,13.25-17.68,22.94-3.46,10-6.91,19.83-9.54,30.06-2.92,11.4-5.18,22.94-7.46,34.56-1.17,6.06-2.09,12.2-3.11,18.28l-9.88,59.11c-0.73,4.39-1.4,8.83-2,13.25q-11.75-58.11-19.83-116.87a1564.44,1564.44,0,0,1-13.22-164c-1.38-57.57,3-115,8.14-172.21,0.92-9.66-4.58-20.53-11.25-27.14a38.44,38.44,0,0,0-54.32,0h-0.09Zm320.4,153.06-0.28.59a6.35,6.35,0,0,1,.28-0.59h0Z"
     transform="translate(0)"
     id="path16" />
  <path
     class="cls-5"
     d="M755.1,170.59c0,41.73-.73,83.43-1.35,125.14-0.16,10.37-.73,20.73-1.11,31.1q-1.24,33.52-2.51,67.06-1.42,37.77-3.08,75.52c-1.45,5.18-3.11,10.37-5,15.55a134.66,134.66,0,0,1-10.37,18.73,82.35,82.35,0,0,1-6.53,6.55,85.43,85.43,0,0,1-7.43,4.46,86.63,86.63,0,0,1-11.06,2.68,164.14,164.14,0,0,1-18.4.52c1-20.85,2-41.69,2.42-62.58,0.67-31.57,1.5-63.1,2-94.67l1.35-92c0.19-12.63,1-25.26,1.54-37.89,0.73-17.69,1.5-35.33,2.7-53,0.66-9.81-4.47-20.39-11.27-27.16a38.39,38.39,0,0,0-54.29,0l0,0c-7.57,7.55-10.56,16.72-11.25,27.16-1.4,20.94-2.23,41.88-3.09,62.86-0.48,11.85-1.07,23.69-1.26,35.56-0.47,31.74-.73,63.5-1.42,95.24q-1.12,52.2-2.23,104.39A75.74,75.74,0,0,0,601.54,466a53.44,53.44,0,0,0-26.64-8.28,64.53,64.53,0,0,0-14,1.54c-6,1-16.31,7.65-20.37,12A54.56,54.56,0,0,0,526.74,495c-2.78,10-1.57,18.31-.09,28.32,0.57,3.82,4.32,11.47,5.32,13.42a46.65,46.65,0,0,0,3.68,6,107.87,107.87,0,0,0,9,11.23A85.54,85.54,0,0,0,557.43,564a69,69,0,0,0,11.68,6.25q3.59,1.73,7.24,3.21a391,391,0,0,1,8.54,41.78A668.27,668.27,0,0,1,588.66,684c0.29,20.84.83,41.57,1.73,62.37a38.41,38.41,0,0,0,57.81,33.17l7.78-6a38.24,38.24,0,0,0,9.88-16.95c5.72-15.29,5.67-32.19,7.43-48.38l3.46-31.84c1.42-13,2.44-26,3.54-39q2-21.46,3.78-42.94,5.74,0.26,11.47.35a114.45,114.45,0,0,0,15.72-1.09,212.62,212.62,0,0,0,22.81-3.7,64.88,64.88,0,0,0,7.74-2.4c-2.54,57.45-5.18,114.88-8.88,172.28q-0.81,12.61-1.61,25.21-0.09,1.23-.16,2.45c-0.52,9.88,4.39,20.3,11.25,27.16a38.41,38.41,0,0,0,54.32,0l0,0c7.53-7.53,10.56-16.69,11.25-27.09,1.09-6.57,2.33-13.1,3.46-19.63l1.36-10.21a38.43,38.43,0,0,0-2.25-13q4.61-78.08,8-156.24c1.59-36.13,3.28-72.26,4.87-108.4l0.64-2.9a403,403,0,0,0,6.41-41.47c2.63-24.41,2.63-49,2.83-73.5,0.12-14.55.55-29.13,0.29-43.66C832.76,269.3,832,220,831.87,170.66a38.43,38.43,0,0,0-76.83,0h0Zm3.61,539.48-0.16,1.14a6.46,6.46,0,0,1,.16-1.14h0Z"
     transform="translate(0)"
     id="path18" />
  <path
     class="cls-6"
     d="M104.3,61.28"
     transform="translate(0)"
     id="path20" />
  <rect
     id="_Slice_"
     data-name=" Slice "
     class="cls-7"
     x="110.35"
     y="44"
     width="1.73"
     height="41.47" />
  <rect
     id="_Slice_2"
     data-name=" Slice 2"
     class="cls-7"
     x="801.46"
     y="54.37"
     width="3.46"
     height="24.19" />
</svg>
