<?xml version="1.0" encoding="UTF-8" standalone="no"?>
<svg
   xmlns:dc="http://purl.org/dc/elements/1.1/"
   xmlns:cc="http://creativecommons.org/ns#"
   xmlns:rdf="http://www.w3.org/1999/02/22-rdf-syntax-ns#"
   xmlns:svg="http://www.w3.org/2000/svg"
   xmlns="http://www.w3.org/2000/svg"
   xmlns:sodipodi="http://sodipodi.sourceforge.net/DTD/sodipodi-0.dtd"
   xmlns:inkscape="http://www.inkscape.org/namespaces/inkscape"
   id="Layer_1"
   data-name="Layer 1"
   viewBox="0 0 1024 1024"
   version="1.1"
   sodipodi:docname="icon-monokai.svg"
   inkscape:version="0.92.0 unknown">
  <metadata
     id="metadata27">
    <rdf:RDF>
      <cc:Work
         rdf:about="">
        <dc:format>image/svg+xml</dc:format>
        <dc:type
           rdf:resource="http://purl.org/dc/dcmitype/StillImage" />
        <dc:title>williamhord-icon</dc:title>
      </cc:Work>
    </rdf:RDF>
  </metadata>
  <sodipodi:namedview
     pagecolor="#ffffff"
     bordercolor="#666666"
     borderopacity="1"
     objecttolerance="10"
     gridtolerance="10"
     guidetolerance="10"
     inkscape:pageopacity="0"
     inkscape:pageshadow="2"
     inkscape:window-width="2560"
     inkscape:window-height="1317"
     id="namedview25"
     showgrid="false"
     inkscape:zoom="0.921875"
     inkscape:cx="145.74438"
     inkscape:cy="550.94795"
     inkscape:window-x="0"
     inkscape:window-y="24"
     inkscape:window-maximized="1"
     inkscape:current-layer="Layer_1"
     showguides="true">
    <inkscape:grid
       type="xygrid"
       id="grid338" />
  </sodipodi:namedview>
  <defs
     id="defs4">
    <style
       id="style2">.cls-1{fill:#FFFFFF;}.cls-2{fill:#173E48;}.cls-3{fill:#2E515A;}.cls-4{fill:#45646C;}.cls-5{fill:#268BD2;}.cls-6,.cls-7{fill:none;}.cls-6{stroke:#000;stroke-miterlimit:10;}</style>
  </defs>
  <title
     id="title6">williamhord-icon</title>
  <polyline
     class="cls-2"
     points="952.31 212.39 952.31 927.55 243.06 927.55"
     id="polyline10"
     transform="matrix(1.205706,0,0,1.205706,-129.20595,-99.352673)"
     style="fill:#173E48" />
  <path
     id="polyline12"
     style="fill:#2E515A;stroke-width:1.205706"
     d="M 972.31449,104.5686 111.76586,967.17785 h 860.54863 z"
     inkscape:connector-curvature="0" />
  <path
     id="polyline14"
     style="fill:#45646C;stroke-width:1.205706"
     d="M 918.75803,54.206883 59.439487,915.6115 H 918.75803 Z"
     inkscape:connector-curvature="0" />
  <path
     id="path16"
     style="fill:#268BD2;stroke-width:1.20089972"
     d="m 137.17041,7.0918179 c -11.85994,0.186168 -23.18403,5.0747531 -31.57754,13.6319561 h -0.10619 l -0.16605,0.02364 c -2.37694,3.118593 -4.75335,6.286458 -7.130295,9.417187 -4.05833,7.146986 -6.18326,15.266905 -6.15718,23.528186 -2.44825,27.533433 -4.75326,54.957553 -6.369573,82.515233 -1.616313,28.51632 -2.960458,56.94863 -3.471504,85.44069 -0.903238,56.77785 2.794028,113.65299 8.213447,170.16388 5.62145,59.22902 13.679455,118.11801 23.769555,176.7403 5.39563,31.45292 11.11167,62.89281 17.90971,94.17582 5.09459,23.58161 10.21321,47.1477 15.35532,70.69694 1.54501,6.97741 3.01797,13.96769 4.53921,20.96934 3.92194,18.00775 9.98291,35.63881 15.06957,53.25826 2.09049,7.80187 6.13802,14.91204 11.74287,20.6283 8.04594,8.21518 20.53694,14.42828 32.25522,13.6517 2.44249,-0.1376 4.89055,-0.1376 7.33304,0 5.7063,-0.0907 11.39503,-0.67098 17.0061,-1.73481 10.26838,-1.46827 19.83623,-7.90005 27.03836,-15.20509 10.04257,-10.19308 16.42419,-24.26889 19.89452,-38.02951 3.10191,-12.30451 4.11176,-25.48275 4.75351,-38.09063 0.64177,-9.3679 0.93912,-18.74883 2.05628,-28.06823 4.68255,-35.33598 9.31783,-70.67567 13.90532,-106.01973 l 10.9223,-66.74039 c 0.0632,-0.63303 0.16636,-1.26124 0.30891,-1.88068 6.07704,15.9934 12.18075,31.97059 18.31324,47.93166 8.04594,20.82299 17.14982,41.45241 23.08027,62.89425 1.82882,7.34315 4.77217,14.34874 8.72317,20.76238 6.15628,9.3679 8.64168,11.44229 17.60273,18.05568 4.11209,2.97296 8.99611,4.35727 13.63115,6.28666 9.59095,3.77388 22.58145,1.64915 32.08919,-0.26809 10.65806,-2.61223 20.254,-8.55055 27.45345,-16.98919 3.36522,-3.94268 6.42078,-8.15012 9.13827,-12.5832 2.34641,-4.80137 4.40266,-9.74493 6.1572,-14.80294 1.51355,-4.20054 2.56581,-8.55961 3.13749,-12.99718 1.9253,-11.80694 2.75764,-23.70991 4.11251,-35.63823 2.05605,-13.4573 4.11067,-26.84234 5.94092,-40.33602 1.88969,-14.56152 3.32838,-29.1238 4.94469,-43.68535 1.09336,-10.25373 2.30577,-20.54416 3.43481,-30.8222 l 8.15359,-74.55487 c 2.85166,-32.74105 3.9406,-64.54236 9.02183,-93.47203 1.64244,-12.45629 2.44751,-19.07999 4.03182,-31.74043 0.22583,-2.09928 0.83469,-8.79445 0.87034,-10.95444 0.5409,-5.91221 -2.15633,-17.31119 -3.62141,-20.69535 -6.58195,-11.27241 -6.9748,-14.95981 -19.32309,-18.60258 -14.84397,-4.1986 -28.07271,0.58152 -41.39544,6.51534 -4.75387,2.09928 -8.46177,5.93399 -12.4669,9.28313 -7.02384,5.93383 -10.43435,16.07856 -13.54814,24.26941 -2.05603,5.27857 -1.69934,11.29608 -2.37676,16.98722 -0.30901,2.42691 -0.2618,4.96444 -0.36877,7.43991 0,2.09929 -0.36947,4.19754 -0.57151,6.2847 -0.71308,5.93382 -1.38879,11.90529 -2.05432,17.82701 -2.37695,19.85221 -4.41048,39.69075 -6.52596,59.54294 -4.10417,38.32921 -8.30755,76.61518 -12.60979,114.85538 -0.19017,1.46831 -0.30829,2.93575 -0.48654,4.40402 -3.13756,-8.21513 -6.29897,-16.50176 -9.40086,-24.7169 -2.68595,-7.06233 -5.21691,-14.14944 -7.51065,-21.36955 -3.81499,-11.84336 -8.21231,-23.29833 -13.07317,-34.74126 -4.75181,-10.63973 -11.35589,-20.3103 -19.491,-28.54136 -8.01027,-8.38503 -19.09621,-14.26245 -27.98326,-18.03633 -4.53993,-1.61389 -5.64457,-2.93417 -13.28125,-2.97279 -14.38864,0.17604 -29.20547,2.2498 -35.85574,6.22984 -10.75567,6.28572 -17.04295,16.07716 -21.01244,27.8356 -4.11211,12.13461 -8.21174,24.06433 -11.33743,36.47804 -3.47033,13.83345 -6.15634,27.83633 -8.86604,41.93674 -1.39051,7.35357 -2.48322,14.80391 -3.69545,22.18176 l -11.74286,71.72793 c -0.86761,5.32708 -1.6637,10.71491 -2.37678,16.07841 C 203.81677,556.44242 195.9615,509.16954 189.55959,461.63423 180.90695,395.62594 175.66221,329.19848 173.8471,262.62739 172.20703,192.76845 177.41336,123.07943 183.52211,53.657315 184.61549,41.935284 178.07869,28.744746 170.15162,20.723774 161.41392,11.815679 149.51669,6.8982529 137.17041,7.0918179 Z"
     inkscape:connector-curvature="0"
     sodipodi:nodetypes="ccccccccccccccccccccccccccccccccccccccccccccccccccccccccccccccccccccccccc" />
  <path
     id="path18"
     style="fill:#268BD2;stroke-width:1.20089972"
     d="m 832.89006,41.229861 c -25.46713,-1.114349 -46.8986,19.271669 -47.61055,45.288058 l 0.0715,-0.08488 c 0,50.637721 -0.86761,101.238451 -1.60446,151.851891 -0.19015,12.5836 -0.86902,25.15416 -1.32064,37.73777 -0.98247,27.11679 -1.97678,54.24275 -2.98304,81.37577 -1.12507,30.55493 -2.34546,61.10187 -3.66068,91.64063 -1.72331,6.28577 -3.69477,12.58216 -5.94096,18.86788 -3.51064,7.89856 -7.63167,15.49918 -12.32401,22.7298 -2.43939,2.79521 -5.0307,5.44825 -7.76167,7.94655 -2.85216,1.95585 -5.79971,3.76263 -8.83128,5.41335 -4.30638,1.37649 -8.69675,2.46243 -13.14267,3.25078 -7.27193,0.62842 -14.57266,0.83969 -21.86777,0.63281 1.18847,-25.30065 2.37574,-50.58957 2.87491,-75.93877 0.79628,-38.30896 1.78253,-76.5701 2.37675,-114.87905 l 1.60447,-111.63811 c 0.2258,-15.32599 1.1886,-30.65202 1.83034,-45.97804 0.86759,-21.46612 1.78279,-42.87182 3.20892,-64.313646 0.7844,-11.904065 -5.31205,-24.742064 -13.39365,-32.957196 -17.81758,-18.19122 -46.7045,-18.19122 -64.52207,0 -8.99672,9.161623 -12.55045,20.288652 -13.3705,32.957196 -1.66385,25.409846 -2.65022,50.819436 -3.67231,76.277816 -0.57047,14.37952 -1.27053,28.74734 -1.49633,43.15112 -0.5586,38.51525 -0.86937,77.05573 -1.68942,115.57099 -0.88738,42.22844 -1.7695,84.45136 -2.64899,126.67172 -4.31323,-4.45005 -9.06052,-8.43845 -14.1679,-11.90308 -9.49606,-6.1524 -20.42188,-9.6199 -31.66057,-10.04802 -5.59595,10e-4 -11.17495,0.62801 -16.63735,1.86884 -7.13079,1.21347 -19.38461,9.28391 -24.20976,14.56247 -7.77833,8.01927 -13.41968,17.93569 -16.38827,28.80746 -3.30397,12.13462 -1.86707,22.21802 -0.10813,34.36476 0.67741,4.63541 5.13476,13.91717 6.32323,16.28342 1.27602,2.53639 2.73789,4.97072 4.37317,7.2822 3.26442,4.78006 6.83784,9.33221 10.69639,13.62606 4.67344,4.5399 9.75946,8.61533 15.18928,12.17116 4.37783,2.97659 9.02598,5.51623 13.88021,7.58383 2.84442,1.39953 5.71344,2.69811 8.60539,3.8954 4.2841,16.69871 7.67247,33.62369 10.14999,50.69944 2.89655,27.71552 4.39166,55.56508 4.47936,83.4378 0.34466,25.28855 0.98662,50.44249 2.05627,75.68249 -0.0186,36.01269 38.26485,58.44096 68.70603,40.25125 l 9.24638,-7.28221 c 5.59873,-5.69664 9.64555,-12.78567 11.74093,-20.56721 6.79805,-18.5538 6.73959,-39.06116 8.8313,-58.70709 l 4.11251,-38.63668 c 1.68762,-15.77501 2.89978,-31.5495 4.20711,-47.32449 1.58464,-17.36058 3.08065,-34.73022 4.49095,-52.10698 4.54789,0.21034 9.09316,0.353 13.6331,0.42582 6.2497,-0.002 12.49182,-0.44418 18.68199,-1.32281 9.10964,-0.99403 18.1596,-2.49316 27.10978,-4.49075 3.12247,-0.77394 6.19449,-1.74639 9.19812,-2.91168 -3.01873,69.71334 -6.1562,139.4022 -10.55354,209.05486 -0.64176,10.20117 -1.27953,20.39849 -1.91338,30.59157 -0.0713,0.99505 -0.13566,1.98587 -0.19114,2.97282 -0.618,11.98897 5.21759,24.63284 13.3705,32.95718 17.82721,18.20277 46.73152,18.20277 64.55874,0 8.94917,-9.13734 12.55047,-20.25242 13.37052,-32.87243 1.2954,-7.97244 0.4649,-15.62483 1.80785,-23.54875 l 0.59453,-11.03409 c 0.006,-5.37635 0.38051,-14.23867 0.65208,-20.65618 3.65256,-63.16467 6.82109,-123.10796 9.50705,-186.33736 1.88965,-43.84235 3.89872,-87.68452 5.7884,-131.53898 l 0.76072,-3.51889 c 3.39307,-16.62721 5.93547,-33.42362 7.61683,-50.32094 3.12567,-29.62061 3.12568,-59.46045 3.36339,-89.19024 0.1426,-17.65584 0.65463,-35.34872 0.34562,-52.98032 -0.98646,-59.81148 -1.89022,-119.63394 -2.0447,-179.506128 -0.66956,-24.465585 -19.74982,-44.239697 -43.69887,-45.287961 z m -43.24897,699.840699 -0.19113,1.38391 c 0.0232,-0.46619 0.0872,-0.92934 0.19113,-1.38391 z"
     inkscape:connector-curvature="0"
     sodipodi:nodetypes="ccccccccccccccccccccccccccccccccccccccccccccccccccccccccccccccccccccccc" />
</svg>
