<?xml version="1.0" standalone="no"?>
<!DOCTYPE svg PUBLIC "-//W3C//DTD SVG 20010904//EN"
 "http://www.w3.org/TR/2001/REC-SVG-20010904/DTD/svg10.dtd">
<svg version="1.0" xmlns="http://www.w3.org/2000/svg"
 width="16.000000pt" height="16.000000pt" viewBox="0 0 16.000000 16.000000"
 preserveAspectRatio="xMidYMid meet">
<metadata>
Created by potrace 1.11, written by Peter Selinger 2001-2013
</metadata>
<g transform="translate(0.000000,16.000000) scale(0.002286,-0.002286)"
fill="#000000" stroke="none">
<path d="M630 6945 c-87 -23 -141 -59 -201 -135 -59 -75 -70 -110 -84 -295 -4
-44 -8 -96 -10 -115 -2 -19 -7 -78 -11 -130 -3 -52 -8 -111 -9 -130 -29 -399
-39 -673 -39 -1015 0 -264 9 -550 19 -655 2 -19 6 -80 10 -135 6 -101 8 -125
19 -250 13 -149 17 -193 26 -270 5 -44 12 -107 15 -140 3 -33 8 -73 10 -90 19
-142 26 -197 30 -240 6 -48 31 -232 40 -286 3 -14 7 -41 9 -60 14 -99 28 -193
42 -274 9 -49 18 -103 20 -120 3 -16 9 -52 14 -80 5 -27 12 -63 15 -80 8 -49
45 -248 49 -270 21 -108 78 -389 86 -420 12 -51 90 -402 96 -435 20 -103 82
-360 110 -450 69 -229 88 -282 117 -328 39 -63 118 -124 189 -148 74 -24 242
-24 343 2 58 14 150 75 194 127 14 16 30 34 36 41 43 43 118 234 130 331 3 28
8 64 10 80 2 17 7 71 10 120 11 179 16 241 25 295 5 30 12 78 15 105 3 28 12
100 20 160 9 61 18 128 20 149 3 22 7 51 10 65 2 14 7 50 10 80 4 30 8 62 10
72 2 10 6 44 10 76 3 32 24 164 46 293 22 129 42 251 45 270 3 19 7 36 8 38 2
1 15 -28 29 -65 71 -184 250 -640 257 -658 5 -11 23 -65 40 -120 62 -194 132
-286 269 -353 66 -31 86 -36 151 -36 96 -1 153 7 217 32 115 44 215 152 272
292 31 77 37 102 47 180 3 25 7 56 9 70 2 14 7 50 10 80 7 70 25 208 31 240 2
14 7 43 9 65 3 22 8 51 10 65 5 29 11 79 20 165 4 33 8 71 10 85 2 14 7 52 10
85 3 33 8 71 10 85 5 26 9 66 20 180 3 36 8 76 10 90 2 14 7 48 9 75 3 28 11
90 16 139 6 50 13 110 15 135 2 25 6 64 9 86 9 79 20 204 31 365 3 41 7 93 10
115 2 22 7 72 10 110 3 39 8 81 11 95 2 14 6 39 8 55 2 17 7 48 10 70 34 248
39 292 39 362 0 34 -6 83 -13 110 -13 48 -65 138 -91 159 -40 33 -170 55 -234
41 -198 -45 -305 -126 -363 -274 -21 -55 -34 -106 -37 -155 -5 -68 -11 -133
-19 -203 -4 -33 -13 -115 -22 -202 -3 -32 -7 -69 -9 -83 -4 -27 -18 -156 -20
-180 -2 -19 -18 -166 -30 -257 -2 -21 -7 -65 -10 -98 -3 -33 -8 -73 -10 -90
-2 -16 -7 -57 -10 -90 -3 -33 -8 -73 -10 -90 -3 -16 -7 -55 -10 -85 -3 -30 -7
-71 -9 -90 -10 -82 -19 -167 -20 -187 0 -13 -2 -23 -4 -23 -6 0 -33 69 -109
280 -40 113 -77 214 -82 225 -5 11 -24 55 -42 98 -68 164 -185 291 -336 368
-88 44 -88 44 -193 43 -200 0 -298 -44 -377 -168 -33 -52 -112 -281 -147 -426
-19 -79 -52 -242 -60 -290 -3 -19 -8 -46 -11 -60 -3 -14 -14 -83 -26 -155 -12
-71 -23 -139 -25 -150 -6 -32 -23 -127 -28 -160 -6 -36 -34 -209 -40 -245 -3
-14 -5 -38 -5 -54 -1 -16 -3 -27 -6 -24 -6 5 -68 324 -90 458 -3 19 -10 62
-16 95 -6 33 -12 69 -14 80 -1 11 -5 39 -9 62 -4 23 -9 55 -11 70 -8 57 -16
109 -21 143 -4 19 -8 44 -9 55 -2 11 -8 54 -14 95 -6 41 -13 93 -16 115 -12
98 -25 204 -30 250 -3 28 -7 64 -9 80 -2 17 -7 64 -11 105 -3 41 -8 93 -10
115 -12 138 -26 301 -30 375 -6 89 -17 309 -21 390 -4 112 -4 701 1 810 5 121
16 322 20 380 2 25 6 88 9 140 6 90 13 181 21 260 6 59 17 192 20 243 5 80
-52 212 -115 265 -40 34 -109 74 -145 83 -59 16 -144 18 -195 4z"/>
<path d="M6190 6678 c-91 -24 -160 -72 -213 -150 -64 -93 -65 -108 -72 -763
-3 -324 -8 -642 -10 -705 -2 -63 -7 -185 -10 -270 -3 -85 -7 -204 -10 -265 -2
-60 -7 -186 -10 -280 -3 -93 -8 -210 -10 -260 -2 -49 -7 -162 -10 -250 -11
-295 -22 -350 -101 -494 -94 -172 -179 -223 -380 -230 l-90 -3 2 64 c2 35 5
119 8 188 13 274 29 1001 41 1840 4 269 11 506 20 680 14 258 19 380 19 470 0
94 -3 111 -28 164 -35 75 -110 150 -184 184 -49 23 -70 27 -147 27 -80 0 -97
-3 -155 -31 -81 -39 -135 -92 -171 -169 -39 -85 -45 -134 -65 -605 -14 -346
-18 -495 -29 -1200 -2 -179 -7 -435 -10 -570 -4 -135 -8 -330 -10 -435 -4
-208 -4 -209 -59 -154 -29 30 -152 95 -196 105 -87 17 -111 20 -160 17 -196
-14 -366 -162 -415 -364 -20 -81 -16 -210 9 -291 29 -99 124 -234 214 -308 66
-54 76 -60 173 -106 l76 -36 26 -116 c37 -163 56 -274 62 -367 3 -44 8 -94 10
-112 8 -52 15 -248 30 -843 8 -308 13 -338 68 -419 108 -158 304 -211 467
-126 56 29 108 75 141 124 48 72 90 230 104 391 8 97 15 170 20 215 2 22 7 67
10 100 6 58 10 93 20 180 6 54 13 135 20 220 3 39 8 86 10 105 3 19 7 75 11
124 3 49 7 96 9 105 2 9 6 59 10 111 4 52 9 97 11 99 3 3 51 6 107 6 93 2 189
10 227 20 8 2 35 7 60 10 25 3 69 12 97 20 49 12 72 7 59 -13 -2 -4 -8 -80
-11 -167 -3 -88 -8 -185 -10 -215 -2 -30 -6 -122 -10 -205 -6 -145 -9 -208
-20 -400 -3 -49 -7 -128 -10 -175 -10 -192 -22 -390 -31 -530 -16 -227 -11
-278 34 -366 30 -59 100 -123 172 -158 58 -28 74 -31 151 -30 103 1 171 28
244 95 72 67 108 148 119 277 14 151 16 184 21 307 6 153 14 316 20 400 2 33
7 114 10 180 4 66 8 145 10 175 2 30 7 123 10 205 7 150 9 192 20 405 5 111
10 205 20 435 3 61 7 164 10 230 3 66 8 165 10 220 15 358 19 399 50 555 3 14
7 45 10 70 3 25 8 54 10 65 2 11 7 47 10 80 3 33 8 78 11 100 11 105 19 458
18 930 0 645 -11 1560 -19 1600 -9 47 -55 135 -92 176 -85 94 -232 138 -353
107z"/>
</g>
</svg>
